Coordinates
version=1
nRows=8
nColumns=46
inDegrees=yes

Units are S.I. units (second, meters, Newtons, ...)
Angles are in degrees.

endheader
time	pelvis_tilt	pelvis_list	pelvis_rotation	pelvis_tx	pelvis_ty	pelvis_tz	bb_angle	bb_tx	bb_ty	bb_tz	hip_flexion_r	hip_adduction_r	hip_rotation_r	knee_angle_r	knee_angle_r_beta	ankle_angle_r	subtalar_angle_r	mtp_angle_r	crank_angle_r	hip_flexion_l	hip_adduction_l	hip_rotation_l	knee_angle_l	knee_angle_l_beta	ankle_angle_l	subtalar_angle_l	mtp_angle_l	crank_angle_l	lumbar_extension	lumbar_bending	lumbar_rotation	arm_flex_r	arm_add_r	arm_rot_r	elbow_flex_r	pro_sup_r	wrist_flex_r	wrist_dev_r	arm_flex_l	arm_add_l	arm_rot_l	elbow_flex_l	pro_sup_l	wrist_flex_l	wrist_dev_l
      0.00000000	    -13.65698177	     -2.10351714	     -0.93549027	      0.04771997	      1.15359355	     -0.24187942	      0.00000000	      0.50000000	      0.00000000	      0.25000000	     74.70036957	     -0.88968636	      2.07381509	     75.54982485	      1.31859319	      4.02324732	     -9.52613629	      0.00000000	      0.00000000	     47.45440693	     -5.71559941	      2.08140539	     72.78142156	      1.27027544	     18.56939167	     -8.26662852	      0.00000000	      0.00000000	    -55.57263026	      0.91346891	      2.15606359	     89.75205569	     -6.59319146	     39.73036461	     36.15362517	     23.95660028	      0.00000000	      0.00000000	     89.77605105	     -4.95142910	     36.14467458	     32.85605435	     23.38655996	      0.00000000	      0.00000000
      0.00500000	    -13.76614910	     -1.95997572	     -1.03173820	      0.04787195	      1.15352834	     -0.24201791	      0.00000000	      0.50000000	      0.00000000	      0.25000000	     74.81693260	     -0.87206899	      2.24687787	     75.53352089	      1.31830864	      3.99506947	     -9.51823909	      0.00000000	      0.00000000	     47.49414149	     -5.62740280	      1.92014356	     72.71743815	      1.26915872	     18.57649063	     -8.37082614	      0.00000000	      0.00000000	    -55.51037950	      0.74849840	      2.00516943	     89.74971933	     -6.24649367	     38.60298262	     35.45914060	     26.97903200	      0.00000000	      0.00000000	     89.77454882	     -4.63934073	     34.54052935	     32.13935180	     26.31046580	      0.00000000	      0.00000000
      0.01000000	    -13.79453747	     -2.14825147	     -0.96839982	      0.04788767	      1.15350363	     -0.24195263	      0.00000000	      0.50000000	      0.00000000	      0.25000000	     74.81733575	     -0.85014530	      2.04254112	     75.52142522	      1.31809753	      3.98936880	     -9.52794924	      0.00000000	      0.00000000	     47.58376369	     -5.76973129	      2.08721521	     72.77602690	      1.27018129	     18.58930719	     -8.28487539	      0.00000000	      0.00000000	    -55.47874338	      0.93872410	      2.12041438	     89.75266844	     -6.54014379	     39.78228532	     36.25436308	     24.02692290	      0.00000000	      0.00000000	     89.77534447	     -5.08651088	     36.26166561	     33.01985760	     23.08351931	      0.00000000	      0.00000000
      0.01500000	    -13.68058242	     -2.10498886	     -0.94640799	      0.04766271	      1.15338935	     -0.24200221	      0.00000000	      0.50000000	      0.00000000	      0.25000000	     74.75226713	     -0.88391913	      2.10223750	     75.60373155	      1.31953404	      4.08033409	     -9.48289068	      0.00000000	      0.00000000	     47.48866471	     -5.68145099	      2.12782423	     72.80255556	      1.27064430	     18.60115602	     -8.31457940	      0.00000000	      0.00000000	    -55.50492405	      0.86373849	      2.16110856	     89.75366274	     -6.89495052	     40.21005785	     36.01420540	     25.64367724	      0.00000000	      0.00000000	     89.77643576	     -4.89503090	     36.20789005	     32.52163741	     24.70118644	      0.00000000	      0.00000000
      0.02000000	    -13.78443783	     -2.44304588	     -1.46986039	      0.04781343	      1.15218258	     -0.24059422	      0.00000000	      0.50000000	      0.00000000	      0.25000000	     74.95374014	     -0.09937564	      1.99467378	     75.71528548	      1.32148103	      3.99288325	     -9.76045530	      0.00000000	      0.00000000	     47.87098800	     -5.78867266	      2.64534575	     73.18408380	      1.27730322	     17.74018542	    -10.38919686	      0.00000000	      0.00000000	    -55.31835413	      0.66500732	      2.71154934	     89.74992253	     -6.79760439	     40.25802666	     35.89069229	     25.52697386	      0.00000000	      0.00000000	     89.77222540	     -4.91941218	     36.35619043	     32.41367269	     24.58781137	      0.00000000	      0.00000000
      0.02500000	    -13.74753509	     -2.67137817	     -1.64608713	      0.04780390	      1.15195051	     -0.24006622	      0.00000000	      0.50000000	      0.00000000	      0.25000000	     74.90485200	      0.24809447	      1.85358334	     75.69214215	      1.32107710	      3.87862677	    -10.05491848	      0.00000000	      0.00000000	     47.96811865	     -5.95628130	      2.98106156	     73.41231264	      1.28128657	     17.49317140	    -10.71153245	      0.00000000	      0.00000000	    -55.39054574	      0.66142457	      3.01302687	     89.74881235	     -6.69942517	     39.64077169	     35.84424614	     26.61279647	      0.00000000	      0.00000000	     89.76963000	     -4.83680469	     35.74043284	     32.35935214	     25.68858229	      0.00000000	      0.00000000
      0.03000000	    -13.71279120	     -2.05976718	     -0.89011260	      0.04757082	      1.15346966	     -0.24226136	      0.00000000	      0.50000000	      0.00000000	      0.25000000	     74.81228704	     -1.00059642	      2.07273633	     75.62198772	      1.31985267	      3.84754951	     -9.73355683	      0.00000000	      0.00000000	     47.53028065	     -5.54237651	      2.15019011	     72.76024171	      1.26990578	     18.27599933	     -8.71233170	      0.00000000	      0.00000000	    -55.51556575	      0.84517798	      2.20051001	     89.75097902	     -6.95546477	     39.65734090	     35.91415084	     26.56489353	      0.00000000	      0.00000000	     89.77643868	     -4.66035649	     35.94217571	     32.32623190	     25.62905876	      0.00000000	      0.00000000
      0.03500000	    -13.57863342	     -2.07974221	     -0.97820389	      0.04766589	      1.15375365	     -0.24206161	      0.00000000	      0.50000000	      0.00000000	      0.25000000	     74.64706268	     -0.87501281	      2.09811198	     75.60851318	      1.31961750	      3.92931071	     -9.75686791	      0.00000000	      0.00000000	     47.33463383	     -5.68252136	      2.06146678	     72.72851452	      1.26935204	     18.49646390	     -8.42839517	      0.00000000	      0.00000000	    -55.68600085	      0.78670201	      2.23098293	     89.75158417	     -6.82871467	     39.30779043	     35.79129323	     27.19879235	      0.00000000	      0.00000000	     89.77646591	     -4.63491823	     35.46346160	     32.22365593	     26.26683958	      0.00000000	      0.00000000
